<svg xmlns="http://www.w3.org/2000/svg" xmlns:xlink="http://www.w3.org/1999/xlink" width="142.33" height="274.09" viewBox="0 0 142.33 274.09">
  <defs>
    <clipPath id="clip-path">
      <rect width="142.329" height="274.09" fill="none"/>
    </clipPath>
  </defs>
  <g id="app" transform="translate(0.001)" clip-path="url(#clip-path)">
    <g id="Grupo_482" data-name="Grupo 482" transform="translate(1 1)">
      <path id="Caminho_1008" data-name="Caminho 1008" d="M-848.13,1012.59H-954.34a17.094,17.094,0,0,1-17.06-17.06V757.56a17.1,17.1,0,0,1,17.06-17.06h106.21a17.1,17.1,0,0,1,17.06,17.06V995.53A17.145,17.145,0,0,1-848.13,1012.59Z" transform="translate(971.4 -740.5)" fill="none" stroke="#000" stroke-miterlimit="10" stroke-width="2"/>
    </g>
    <g id="Grupo_485" data-name="Grupo 485" transform="translate(49.899 8.39)">
      <g id="Grupo_483" data-name="Grupo 483">
        <path id="Caminho_1009" data-name="Caminho 1009" d="M-878.225,755.56h-28.459a2.483,2.483,0,0,1-2.516-2.516v-.629a2.484,2.484,0,0,1,2.516-2.516h28.459a2.484,2.484,0,0,1,2.516,2.516v.629A2.533,2.533,0,0,1-878.225,755.56Z" transform="translate(909.2 -749.9)" fill="none" stroke="#000" stroke-miterlimit="10" stroke-width="2"/>
      </g>
      <g id="Grupo_484" data-name="Grupo 484" transform="translate(36.792 0)">
        <path id="Caminho_1010" data-name="Caminho 1010" d="M-859.57,755.56a2.818,2.818,0,0,1-2.83-2.83,2.818,2.818,0,0,1,2.83-2.83,2.818,2.818,0,0,1,2.83,2.83A2.818,2.818,0,0,1-859.57,755.56Z" transform="translate(862.4 -749.9)" fill="none" stroke="#000" stroke-miterlimit="10" stroke-width="2"/>
      </g>
    </g>
    <path id="Caminho_1011" data-name="Caminho 1011" d="M-855.418,752.5h-8.491a11.64,11.64,0,0,1-11.4,9.434h-47.8a11.64,11.64,0,0,1-11.4-9.434h-8.648A18.957,18.957,0,0,0-962.1,771.446V986.933a18.957,18.957,0,0,0,18.946,18.946h87.735a18.957,18.957,0,0,0,18.946-18.946V771.368A18.94,18.94,0,0,0-855.418,752.5Z" transform="translate(970.411 -742.066)" fill="none" stroke="#000" stroke-miterlimit="10" stroke-width="2"/>
    <g id="Grupo_489" data-name="Grupo 489" transform="translate(17.667 37.949)">
      <g id="Grupo_486" data-name="Grupo 486">
        <rect id="Retângulo_179" data-name="Retângulo 179" width="27.044" height="27.044" fill="none" stroke="#000" stroke-miterlimit="10" stroke-width="2"/>
        <line id="Linha_2" data-name="Linha 2" x1="27.123" y2="27.123" fill="none" stroke="#000" stroke-miterlimit="10" stroke-width="2"/>
        <line id="Linha_3" data-name="Linha 3" x2="27.123" y2="27.123" fill="none" stroke="#000" stroke-miterlimit="10" stroke-width="2"/>
      </g>
      <g id="Grupo_487" data-name="Grupo 487" transform="translate(39.387)">
        <rect id="Retângulo_180" data-name="Retângulo 180" width="27.044" height="27.044" fill="none" stroke="#000" stroke-miterlimit="10" stroke-width="2"/>
        <line id="Linha_4" data-name="Linha 4" x1="27.044" y2="27.123" fill="none" stroke="#000" stroke-miterlimit="10" stroke-width="2"/>
        <line id="Linha_5" data-name="Linha 5" x2="27.044" y2="27.123" fill="none" stroke="#000" stroke-miterlimit="10" stroke-width="2"/>
      </g>
      <g id="Grupo_488" data-name="Grupo 488" transform="translate(78.773)">
        <rect id="Retângulo_181" data-name="Retângulo 181" width="27.044" height="27.044" fill="none" stroke="#000" stroke-miterlimit="10" stroke-width="2"/>
        <line id="Linha_6" data-name="Linha 6" x1="27.044" y2="27.123" fill="none" stroke="#000" stroke-miterlimit="10" stroke-width="2"/>
        <line id="Linha_7" data-name="Linha 7" x2="27.044" y2="27.123" fill="none" stroke="#000" stroke-miterlimit="10" stroke-width="2"/>
      </g>
    </g>
    <g id="Grupo_493" data-name="Grupo 493" transform="translate(17.667 84.49)">
      <g id="Grupo_490" data-name="Grupo 490">
        <rect id="Retângulo_182" data-name="Retângulo 182" width="27.044" height="27.044" fill="none" stroke="#000" stroke-miterlimit="10" stroke-width="2"/>
        <line id="Linha_8" data-name="Linha 8" x1="27.123" y2="27.044" fill="none" stroke="#000" stroke-miterlimit="10" stroke-width="2"/>
        <line id="Linha_9" data-name="Linha 9" x2="27.123" y2="27.044" fill="none" stroke="#000" stroke-miterlimit="10" stroke-width="2"/>
      </g>
      <g id="Grupo_491" data-name="Grupo 491" transform="translate(39.387)">
        <rect id="Retângulo_183" data-name="Retângulo 183" width="27.044" height="27.044" fill="none" stroke="#000" stroke-miterlimit="10" stroke-width="2"/>
        <line id="Linha_10" data-name="Linha 10" x1="27.044" y2="27.044" fill="none" stroke="#000" stroke-miterlimit="10" stroke-width="2"/>
        <line id="Linha_11" data-name="Linha 11" x2="27.044" y2="27.044" fill="none" stroke="#000" stroke-miterlimit="10" stroke-width="2"/>
      </g>
      <g id="Grupo_492" data-name="Grupo 492" transform="translate(78.773)">
        <rect id="Retângulo_184" data-name="Retângulo 184" width="27.044" height="27.044" fill="none" stroke="#000" stroke-miterlimit="10" stroke-width="2"/>
        <line id="Linha_12" data-name="Linha 12" x1="27.044" y2="27.044" fill="none" stroke="#000" stroke-miterlimit="10" stroke-width="2"/>
        <line id="Linha_13" data-name="Linha 13" x2="27.044" y2="27.044" fill="none" stroke="#000" stroke-miterlimit="10" stroke-width="2"/>
      </g>
    </g>
    <g id="Grupo_497" data-name="Grupo 497" transform="translate(17.667 131.031)">
      <g id="Grupo_494" data-name="Grupo 494">
        <rect id="Retângulo_185" data-name="Retângulo 185" width="27.044" height="27.044" fill="none" stroke="#000" stroke-miterlimit="10" stroke-width="2"/>
        <line id="Linha_14" data-name="Linha 14" x1="27.123" y2="27.044" fill="none" stroke="#000" stroke-miterlimit="10" stroke-width="2"/>
        <line id="Linha_15" data-name="Linha 15" x2="27.123" y2="27.044" fill="none" stroke="#000" stroke-miterlimit="10" stroke-width="2"/>
      </g>
      <g id="Grupo_495" data-name="Grupo 495" transform="translate(39.387)">
        <rect id="Retângulo_186" data-name="Retângulo 186" width="27.044" height="27.044" fill="none" stroke="#000" stroke-miterlimit="10" stroke-width="2"/>
        <line id="Linha_16" data-name="Linha 16" x1="27.044" y2="27.044" fill="none" stroke="#000" stroke-miterlimit="10" stroke-width="2"/>
        <line id="Linha_17" data-name="Linha 17" x2="27.044" y2="27.044" fill="none" stroke="#000" stroke-miterlimit="10" stroke-width="2"/>
      </g>
      <g id="Grupo_496" data-name="Grupo 496" transform="translate(78.773)">
        <rect id="Retângulo_187" data-name="Retângulo 187" width="27.044" height="27.044" fill="none" stroke="#000" stroke-miterlimit="10" stroke-width="2"/>
        <line id="Linha_18" data-name="Linha 18" x1="27.044" y2="27.044" fill="none" stroke="#000" stroke-miterlimit="10" stroke-width="2"/>
        <line id="Linha_19" data-name="Linha 19" x2="27.044" y2="27.044" fill="none" stroke="#000" stroke-miterlimit="10" stroke-width="2"/>
      </g>
    </g>
    <g id="Grupo_501" data-name="Grupo 501" transform="translate(17.667 177.493)">
      <g id="Grupo_498" data-name="Grupo 498">
        <rect id="Retângulo_188" data-name="Retângulo 188" width="27.044" height="27.044" fill="none" stroke="#000" stroke-miterlimit="10" stroke-width="2"/>
        <line id="Linha_20" data-name="Linha 20" x1="27.123" y2="27.123" fill="none" stroke="#000" stroke-miterlimit="10" stroke-width="2"/>
        <line id="Linha_21" data-name="Linha 21" x2="27.123" y2="27.123" fill="none" stroke="#000" stroke-miterlimit="10" stroke-width="2"/>
      </g>
      <g id="Grupo_499" data-name="Grupo 499" transform="translate(39.387)">
        <rect id="Retângulo_189" data-name="Retângulo 189" width="27.044" height="27.044" fill="none" stroke="#000" stroke-miterlimit="10" stroke-width="2"/>
        <line id="Linha_22" data-name="Linha 22" x1="27.044" y2="27.123" fill="none" stroke="#000" stroke-miterlimit="10" stroke-width="2"/>
        <line id="Linha_23" data-name="Linha 23" x2="27.044" y2="27.123" fill="none" stroke="#000" stroke-miterlimit="10" stroke-width="2"/>
      </g>
      <g id="Grupo_500" data-name="Grupo 500" transform="translate(78.773)">
        <rect id="Retângulo_190" data-name="Retângulo 190" width="27.044" height="27.044" fill="none" stroke="#000" stroke-miterlimit="10" stroke-width="2"/>
        <line id="Linha_24" data-name="Linha 24" x1="27.044" y2="27.123" fill="none" stroke="#000" stroke-miterlimit="10" stroke-width="2"/>
        <line id="Linha_25" data-name="Linha 25" x2="27.044" y2="27.123" fill="none" stroke="#000" stroke-miterlimit="10" stroke-width="2"/>
      </g>
    </g>
    <g id="Grupo_502" data-name="Grupo 502" transform="translate(19.082 225.999)">
      <path id="Caminho_1012" data-name="Caminho 1012" d="M-831.153,1028.05a4.46,4.46,0,0,0,0,6.289,4.437,4.437,0,0,0,5.818.393l4.481,4.481.786-.786-4.481-4.481a4.437,4.437,0,0,0-.393-5.818A4.3,4.3,0,0,0-831.153,1028.05Zm5.424,5.425a3.322,3.322,0,0,1-4.638,0,3.322,3.322,0,0,1,0-4.638,3.322,3.322,0,0,1,4.638,0A3.322,3.322,0,0,1-825.728,1033.474Z" transform="translate(923.605 -1026.713)" fill="none" stroke="#000" stroke-miterlimit="10" stroke-width="2"/>
      <path id="Caminho_1013" data-name="Caminho 1013" d="M-868.448,1039.278h-73.663a6.308,6.308,0,0,1-6.289-6.289h0a6.308,6.308,0,0,1,6.289-6.289h73.663a6.308,6.308,0,0,1,6.289,6.289h0A6.308,6.308,0,0,1-868.448,1039.278Z" transform="translate(948.4 -1026.7)" fill="none" stroke="#000" stroke-miterlimit="10" stroke-width="2"/>
    </g>
    <g id="Grupo_504" data-name="Grupo 504" transform="translate(52.637 82.118)">
      <path id="Caminho_1014" data-name="Caminho 1014" d="M-871.206,848.212l-27.2-2.516a3.1,3.1,0,0,0-3.38,2.83l-2.516,27.2a3.1,3.1,0,0,0,2.83,3.38l27.2,2.516a3.1,3.1,0,0,0,3.38-2.83l2.516-27.2A3.192,3.192,0,0,0-871.206,848.212Z" transform="translate(905.417 -844.111)" fill="#46668c" opacity="0.3"/>
      <g id="Grupo_503" data-name="Grupo 503">
        <path id="Caminho_1015" data-name="Caminho 1015" d="M-875.672,879.624l-27.2-2.516a3.1,3.1,0,0,1-2.83-3.38l2.516-27.2a3.1,3.1,0,0,1,3.38-2.83l27.2,2.516a3.1,3.1,0,0,1,2.83,3.38l-2.516,27.2A3.2,3.2,0,0,1-875.672,879.624Z" transform="translate(905.717 -843.683)" fill="#de5e5b"/>
        <path id="Caminho_1016" data-name="Caminho 1016" d="M-877.033,863.511l-14.78-10.692a1.538,1.538,0,0,0-2.437,1.1l-1.651,17.689a1.545,1.545,0,0,0,2.123,1.572l16.352-7A1.514,1.514,0,0,0-877.033,863.511Z" transform="translate(903.618 -845.573)" fill="#eaabab"/>
      </g>
    </g>
    <g id="Grupo_509" data-name="Grupo 509" transform="translate(12.779 170.09)">
      <g id="Grupo_506" data-name="Grupo 506" transform="translate(1.651 1.179)" opacity="0.3">
        <path id="Caminho_1017" data-name="Caminho 1017" d="M-921.364,990.508l-27.2,2.359a3.1,3.1,0,0,1-3.38-2.83l-2.358-27.2a3.1,3.1,0,0,1,2.83-3.38l27.2-2.359a3.1,3.1,0,0,1,3.38,2.83l2.358,27.2A3.1,3.1,0,0,1-921.364,990.508Z" transform="translate(954.317 -957.083)" fill="#46668c"/>
        <g id="Grupo_505" data-name="Grupo 505" transform="translate(3.816 7.796)">
          <path id="Caminho_1018" data-name="Caminho 1018" d="M-949.413,974.075c-.393-4.167,1.572-5.975,5.267-6.368l.55,1.965c-2.123.393-3.145,1.572-2.83,3.38l1.965-.157.393,5.031-5.11.472Zm7.94-.708c-.393-4.167,1.572-5.975,5.267-6.368l.55,1.965c-2.123.393-3.145,1.572-2.83,3.38l1.965-.157.393,5.031-5.11.472Z" transform="translate(949.463 -967)" fill="#46668c"/>
          <path id="Caminho_1019" data-name="Caminho 1019" d="M-931.1,989.534c2.123-.393,3.145-1.572,2.83-3.38l-1.965.157-.393-5.031,5.11-.472.393,4.245c.393,4.167-1.572,5.975-5.267,6.368Zm7.94-.708c2.123-.393,3.145-1.572,2.83-3.38l-1.965.157-.393-5.031,5.11-.472.393,4.245c.393,4.167-1.572,5.975-5.267,6.368Z" transform="translate(945.536 -969.801)" fill="#46668c"/>
        </g>
      </g>
      <g id="Grupo_508" data-name="Grupo 508">
        <path id="Caminho_1020" data-name="Caminho 1020" d="M-923.463,989.008l-27.2,2.358a3.1,3.1,0,0,1-3.38-2.83l-2.358-27.2a3.1,3.1,0,0,1,2.83-3.38l27.2-2.358a3.1,3.1,0,0,1,3.38,2.83l2.358,27.2A3.154,3.154,0,0,1-923.463,989.008Z" transform="translate(956.417 -955.583)" fill="#f7d622"/>
        <g id="Grupo_507" data-name="Grupo 507" transform="translate(3.737 7.796)">
          <path id="Caminho_1021" data-name="Caminho 1021" d="M-951.613,972.575c-.393-4.167,1.572-5.975,5.267-6.368l.55,1.965c-2.123.393-3.145,1.572-2.83,3.38l1.965-.157.393,5.031-5.11.472Zm8.019-.708c-.393-4.167,1.572-5.975,5.267-6.368l.55,1.965c-2.123.393-3.145,1.572-2.83,3.38l1.965-.157.393,5.031-5.11.472Z" transform="translate(951.663 -965.5)" fill="#fff"/>
          <path id="Caminho_1022" data-name="Caminho 1022" d="M-933.3,988.034c2.123-.393,3.145-1.572,2.83-3.38l-1.965.157-.393-5.031,5.11-.472.393,4.245c.393,4.167-1.572,5.975-5.267,6.368Zm8.019-.708c2.123-.393,3.145-1.572,2.83-3.38l-1.965.157-.393-5.031,5.11-.472.393,4.245c.393,4.167-1.572,5.975-5.267,6.368Z" transform="translate(947.736 -968.301)" fill="#fff"/>
        </g>
      </g>
    </g>
    <g id="Grupo_511" data-name="Grupo 511" transform="translate(13.408 127.637)">
      <path id="Caminho_1023" data-name="Caminho 1023" d="M-921.421,905.6l-27.2-2.2a3.153,3.153,0,0,0-3.38,2.83l-2.2,27.2a3.153,3.153,0,0,0,2.83,3.38l27.2,2.2a3.153,3.153,0,0,0,3.38-2.83l2.2-27.2A3.154,3.154,0,0,0-921.421,905.6Z" transform="translate(955.317 -901.968)" fill="#46668c" opacity="0.3"/>
      <g id="Grupo_510" data-name="Grupo 510">
        <path id="Caminho_1024" data-name="Caminho 1024" d="M-925.572,937.209l-27.2-2.2a3.1,3.1,0,0,1-2.83-3.38l2.2-27.2a3.1,3.1,0,0,1,3.38-2.83l27.2,2.2a3.1,3.1,0,0,1,2.83,3.38l-2.2,27.2A3.212,3.212,0,0,1-925.572,937.209Z" transform="translate(955.617 -901.583)" fill="#6d4c41"/>
        <path id="Caminho_1025" data-name="Caminho 1025" d="M-930.454,930.514l.315-3.616-2.2-.55a3.887,3.887,0,0,0-.315-1.022l1.494-1.73-2.358-2.83-1.965,1.1a5.283,5.283,0,0,0-.943-.472l-.157-2.28-1.808-.157-1.808-.157-.55,2.2a3.893,3.893,0,0,0-1.022.315l-1.729-1.494-2.83,2.358,1.1,1.965a5.276,5.276,0,0,0-.472.943l-2.28.157-.314,3.616,2.2.55a3.888,3.888,0,0,0,.314,1.022l-1.494,1.73,2.359,2.83,1.965-1.1a5.283,5.283,0,0,0,.943.472l.157,2.28,1.808.157,1.808.157.55-2.2a3.893,3.893,0,0,0,1.022-.314l1.729,1.494,2.83-2.359-1.1-1.965a5.275,5.275,0,0,0,.472-.943Zm-9.277,2.83a5.317,5.317,0,0,1-4.874-5.818,5.317,5.317,0,0,1,5.818-4.874,5.317,5.317,0,0,1,4.874,5.818A5.379,5.379,0,0,1-939.731,933.344Z" transform="translate(954.052 -905.265)" fill="#fff"/>
        <path id="Caminho_1026" data-name="Caminho 1026" d="M-919.743,914.455l.236-2.594-1.572-.393c-.079-.236-.157-.472-.236-.786l1.022-1.179-1.651-1.965-1.336.786c-.236-.157-.472-.236-.708-.393l-.157-1.572-1.258-.079-1.258-.079-.393,1.572c-.236.079-.472.157-.786.236l-1.179-1.022-1.965,1.651.786,1.336c-.157.236-.236.472-.393.708l-1.572.157-.236,2.594,1.572.393c.079.236.157.472.236.786l-1.022,1.179,1.651,1.965,1.336-.786c.236.157.472.236.708.393l.157,1.572,1.258.079,1.258.079.393-1.572c.236-.079.472-.157.786-.236l1.179,1.022,1.965-1.651-.786-1.336c.157-.236.236-.472.393-.708Zm-6.525,1.965a3.76,3.76,0,0,1-3.459-4.167,3.76,3.76,0,0,1,4.167-3.459,3.76,3.76,0,0,1,3.459,4.167A3.858,3.858,0,0,1-926.268,916.42Z" transform="translate(950.652 -902.57)" fill="#fff"/>
      </g>
    </g>
    <g id="Grupo_515" data-name="Grupo 515" transform="translate(90.042 29.665)">
      <path id="Caminho_1027" data-name="Caminho 1027" d="M-822.853,782.665l-27.044-3.774a3.118,3.118,0,0,0-3.538,2.673l-3.774,27.044a3.118,3.118,0,0,0,2.673,3.538l27.044,3.774a3.118,3.118,0,0,0,3.538-2.673l3.774-27.044A3.118,3.118,0,0,0-822.853,782.665Z" transform="translate(857.946 -777.368)" fill="#46668c" opacity="0.3"/>
      <g id="Grupo_514" data-name="Grupo 514">
        <g id="Grupo_512" data-name="Grupo 512">
          <path id="Caminho_1028" data-name="Caminho 1028" d="M-828.391,814.02l-27.044-3.774a3.118,3.118,0,0,1-2.673-3.538l3.774-27.044a3.118,3.118,0,0,1,3.538-2.673l27.044,3.774a3.118,3.118,0,0,1,2.673,3.538l-3.773,27.044A3.117,3.117,0,0,1-828.391,814.02Z" transform="translate(858.138 -776.962)" fill="#ebc278"/>
        </g>
        <g id="Grupo_513" data-name="Grupo 513" transform="translate(4.354 9.857)">
          <path id="Caminho_1029" data-name="Caminho 1029" d="M-852.6,795l.472-3.616,9.041-1.887-.472,3.538-5.5.629,5.11,2.123-.472,3.538Z" transform="translate(852.6 -789.5)" fill="#fff"/>
          <path id="Caminho_1030" data-name="Caminho 1030" d="M-833.109,790.9l2.988.393-9.591,14.544-2.987-.393Z" transform="translate(850.483 -789.799)" fill="#fff"/>
          <path id="Caminho_1031" data-name="Caminho 1031" d="M-828.128,805.389l5.5-.629-5.11-2.123.472-3.538,8.176,4.324-.472,3.616-9.041,1.887Z" transform="translate(847.468 -791.553)" fill="#fff"/>
        </g>
      </g>
    </g>
    <g id="Grupo_519" data-name="Grupo 519" transform="translate(12.543 30.389)">
      <path id="Caminho_1032" data-name="Caminho 1032" d="M-921.492,782.227a3.1,3.1,0,0,0-3.38-2.83l-27.2,2.516a3.1,3.1,0,0,0-2.83,3.38l2.516,27.2a3.1,3.1,0,0,0,3.38,2.83l27.2-2.516a3.1,3.1,0,0,0,2.83-3.38Z" transform="translate(956.332 -778.204)" fill="#46668c" opacity="0.3"/>
      <g id="Grupo_518" data-name="Grupo 518">
        <g id="Grupo_516" data-name="Grupo 516">
          <path id="Caminho_1033" data-name="Caminho 1033" d="M-923.606,811.308l-27.2,2.516a3.1,3.1,0,0,1-3.38-2.83l-2.516-27.2a3.1,3.1,0,0,1,2.83-3.38l27.2-2.516a3.1,3.1,0,0,1,3.38,2.83l2.516,27.2A3.1,3.1,0,0,1-923.606,811.308Z" transform="translate(956.717 -777.883)" fill="#e08b3e"/>
        </g>
        <g id="Grupo_517" data-name="Grupo 517" transform="translate(8.661 7.325)">
          <path id="Caminho_1034" data-name="Caminho 1034" d="M-927.3,803.709l-3.695.314-.315,3.459-4.481.315.315-3.459-3.066.236-.315,3.459-4.481.314.314-3.459-2.28.157-.393-5.5,3.223-.236.236-2.28-2.673.236-.393-5.5,3.616-.315.315-3.38,4.481-.314-.315,3.38,3.066-.236.315-3.38,4.481-.315-.314,3.38,2.28-.157.393,5.5-3.223.236-.236,2.28,2.752-.236Zm-10.928-4.4,3.538-.236.236-2.673-3.538.236Z" transform="translate(945.7 -787.2)" fill="#eec099"/>
        </g>
      </g>
    </g>
  </g>
</svg>
