<svg xmlns="http://www.w3.org/2000/svg" xmlns:xlink="http://www.w3.org/1999/xlink" width="283.635" height="254.069" viewBox="0 0 283.635 254.069">
  <defs>
    <clipPath id="clip-path">
      <rect width="283.636" height="254.069" fill="none"/>
    </clipPath>
  </defs>
  <g id="sistema" transform="translate(0.001)" clip-path="url(#clip-path)">
    <g id="Grupo_565" data-name="Grupo 565" transform="translate(1 1)">
      <g id="Grupo_564" data-name="Grupo 564">
        <path id="Caminho_1088" data-name="Caminho 1088" d="M-110.865,1491.783H-358.1a17.236,17.236,0,0,1-17.2-17.2V1295.2a17.236,17.236,0,0,1,17.2-17.2h247.234a17.236,17.236,0,0,1,17.2,17.2v179.381A17.236,17.236,0,0,1-110.865,1491.783Z" transform="translate(375.3 -1278)" fill="none" stroke="#000" stroke-miterlimit="10" stroke-width="2"/>
      </g>
    </g>
    <path id="Caminho_1089" data-name="Caminho 1089" d="M-20,1510" transform="translate(302.636 -1325.101)" fill="none" stroke="#bed5f6" stroke-miterlimit="10" stroke-width="2"/>
    <path id="Caminho_1090" data-name="Caminho 1090" d="M-375.2,1497.5" transform="translate(376.279 -1322.509)" fill="none" stroke="#bed5f6" stroke-miterlimit="10" stroke-width="2"/>
    <line id="Linha_41" data-name="Linha 41" y1="0.159" x2="29.884" transform="translate(126.718 201.863)" fill="none" stroke="#000" stroke-miterlimit="10" stroke-width="2"/>
    <g id="Grupo_566" data-name="Grupo 566" transform="translate(20.5 19.549)">
      <path id="Caminho_1091" data-name="Caminho 1091" d="M-123.917,1456.684H-332.786a17.236,17.236,0,0,1-17.2-17.2L-350.7,1318.6a17.236,17.236,0,0,1,17.2-17.2H-124.63a17.236,17.236,0,0,1,17.2,17.2v121.6C-107.509,1449.709-114.484,1456.684-123.917,1456.684Z" transform="translate(350.7 -1301.4)" fill="none" stroke="#000" stroke-miterlimit="10" stroke-width="2"/>
    </g>
    <line id="Linha_42" data-name="Linha 42" y1="0.159" x2="281.556" transform="translate(1.079 189.893)" fill="none" stroke="#000" stroke-miterlimit="10" stroke-width="2"/>
    <path id="Caminho_1092" data-name="Caminho 1092" d="M-153.63,1590.07H-286.165a11.333,11.333,0,0,1-11.335-11.335h0a11.333,11.333,0,0,1,11.335-11.335H-153.63a11.333,11.333,0,0,1,11.335,11.335h0A11.333,11.333,0,0,1-153.63,1590.07Z" transform="translate(360.17 -1337.001)" fill="none" stroke="#000" stroke-miterlimit="10" stroke-width="2"/>
    <line id="Linha_43" data-name="Linha 43" x2="0.079" y2="14.981" transform="translate(126.797 215.497)" fill="none" stroke="#000" stroke-miterlimit="10" stroke-width="2"/>
    <line id="Linha_44" data-name="Linha 44" y2="14.981" transform="translate(152.004 215.417)" fill="none" stroke="#000" stroke-miterlimit="10" stroke-width="2"/>
    <line id="Linha_45" data-name="Linha 45" x2="0.159" y2="119.218" transform="translate(56.408 37.621)" fill="none" stroke="#000" stroke-miterlimit="10" stroke-width="2"/>
    <g id="Grupo_567" data-name="Grupo 567" transform="translate(75.273 37.621)">
      <rect id="Retângulo_198" data-name="Retângulo 198" width="27.268" height="27.268" transform="translate(0)" fill="none" stroke="#000" stroke-miterlimit="10" stroke-width="2"/>
      <line id="Linha_46" data-name="Linha 46" x1="27.347" y2="27.268" transform="translate(0)" fill="none" stroke="#000" stroke-miterlimit="10" stroke-width="2"/>
      <line id="Linha_47" data-name="Linha 47" x2="27.347" y2="27.268" transform="translate(0)" fill="none" stroke="#000" stroke-miterlimit="10" stroke-width="2"/>
    </g>
    <g id="Grupo_568" data-name="Grupo 568" transform="translate(123.071 37.621)">
      <rect id="Retângulo_199" data-name="Retângulo 199" width="27.268" height="27.268" fill="none" stroke="#000" stroke-miterlimit="10" stroke-width="2"/>
      <line id="Linha_48" data-name="Linha 48" x1="27.347" y2="27.268" fill="none" stroke="#000" stroke-miterlimit="10" stroke-width="2"/>
      <line id="Linha_49" data-name="Linha 49" x2="27.347" y2="27.268" fill="none" stroke="#000" stroke-miterlimit="10" stroke-width="2"/>
    </g>
    <g id="Grupo_569" data-name="Grupo 569" transform="translate(170.869 37.621)">
      <rect id="Retângulo_200" data-name="Retângulo 200" width="27.268" height="27.268" fill="none" stroke="#000" stroke-miterlimit="10" stroke-width="2"/>
      <line id="Linha_50" data-name="Linha 50" x1="27.268" y2="27.268" fill="none" stroke="#000" stroke-miterlimit="10" stroke-width="2"/>
      <line id="Linha_51" data-name="Linha 51" x2="27.268" y2="27.268" fill="none" stroke="#000" stroke-miterlimit="10" stroke-width="2"/>
    </g>
    <g id="Grupo_570" data-name="Grupo 570" transform="translate(218.588 37.621)">
      <rect id="Retângulo_201" data-name="Retângulo 201" width="27.268" height="27.268" transform="translate(0)" fill="none" stroke="#000" stroke-miterlimit="10" stroke-width="2"/>
      <line id="Linha_52" data-name="Linha 52" x1="27.347" y2="27.268" transform="translate(0)" fill="none" stroke="#000" stroke-miterlimit="10" stroke-width="2"/>
      <line id="Linha_53" data-name="Linha 53" x2="27.347" y2="27.268" transform="translate(0)" fill="none" stroke="#000" stroke-miterlimit="10" stroke-width="2"/>
    </g>
    <g id="Grupo_571" data-name="Grupo 571" transform="translate(75.273 83.755)">
      <rect id="Retângulo_202" data-name="Retângulo 202" width="27.268" height="27.268" transform="translate(0)" fill="none" stroke="#000" stroke-miterlimit="10" stroke-width="2"/>
      <line id="Linha_54" data-name="Linha 54" x1="27.347" y2="27.268" transform="translate(0)" fill="none" stroke="#000" stroke-miterlimit="10" stroke-width="2"/>
      <line id="Linha_55" data-name="Linha 55" x2="27.347" y2="27.268" transform="translate(0)" fill="none" stroke="#000" stroke-miterlimit="10" stroke-width="2"/>
    </g>
    <g id="Grupo_572" data-name="Grupo 572" transform="translate(123.071 83.755)">
      <rect id="Retângulo_203" data-name="Retângulo 203" width="27.268" height="27.268" fill="none" stroke="#000" stroke-miterlimit="10" stroke-width="2"/>
      <line id="Linha_56" data-name="Linha 56" x1="27.347" y2="27.268" fill="none" stroke="#000" stroke-miterlimit="10" stroke-width="2"/>
      <line id="Linha_57" data-name="Linha 57" x2="27.347" y2="27.268" fill="none" stroke="#000" stroke-miterlimit="10" stroke-width="2"/>
    </g>
    <g id="Grupo_573" data-name="Grupo 573" transform="translate(170.869 83.755)">
      <rect id="Retângulo_204" data-name="Retângulo 204" width="27.268" height="27.268" fill="none" stroke="#000" stroke-miterlimit="10" stroke-width="2"/>
      <line id="Linha_58" data-name="Linha 58" x1="27.268" y2="27.268" fill="none" stroke="#000" stroke-miterlimit="10" stroke-width="2"/>
      <line id="Linha_59" data-name="Linha 59" x2="27.268" y2="27.268" fill="none" stroke="#000" stroke-miterlimit="10" stroke-width="2"/>
    </g>
    <g id="Grupo_574" data-name="Grupo 574" transform="translate(218.588 83.755)">
      <rect id="Retângulo_205" data-name="Retângulo 205" width="27.268" height="27.268" transform="translate(0)" fill="none" stroke="#000" stroke-miterlimit="10" stroke-width="2"/>
      <line id="Linha_60" data-name="Linha 60" x1="27.347" y2="27.268" transform="translate(0)" fill="none" stroke="#000" stroke-miterlimit="10" stroke-width="2"/>
      <line id="Linha_61" data-name="Linha 61" x2="27.347" y2="27.268" transform="translate(0)" fill="none" stroke="#000" stroke-miterlimit="10" stroke-width="2"/>
    </g>
    <g id="Grupo_575" data-name="Grupo 575" transform="translate(75.273 129.571)">
      <rect id="Retângulo_206" data-name="Retângulo 206" width="27.268" height="27.268" transform="translate(0)" fill="none" stroke="#000" stroke-miterlimit="10" stroke-width="2"/>
      <line id="Linha_62" data-name="Linha 62" x1="27.347" y2="27.268" transform="translate(0)" fill="none" stroke="#000" stroke-miterlimit="10" stroke-width="2"/>
      <line id="Linha_63" data-name="Linha 63" x2="27.347" y2="27.268" transform="translate(0)" fill="none" stroke="#000" stroke-miterlimit="10" stroke-width="2"/>
    </g>
    <g id="Grupo_576" data-name="Grupo 576" transform="translate(123.071 129.571)">
      <rect id="Retângulo_207" data-name="Retângulo 207" width="27.268" height="27.268" fill="none" stroke="#000" stroke-miterlimit="10" stroke-width="2"/>
      <line id="Linha_64" data-name="Linha 64" x1="27.347" y2="27.268" fill="none" stroke="#000" stroke-miterlimit="10" stroke-width="2"/>
      <line id="Linha_65" data-name="Linha 65" x2="27.347" y2="27.268" fill="none" stroke="#000" stroke-miterlimit="10" stroke-width="2"/>
    </g>
    <g id="Grupo_577" data-name="Grupo 577" transform="translate(170.869 129.571)">
      <rect id="Retângulo_208" data-name="Retângulo 208" width="27.268" height="27.268" fill="none" stroke="#000" stroke-miterlimit="10" stroke-width="2"/>
      <line id="Linha_66" data-name="Linha 66" x1="27.268" y2="27.268" fill="none" stroke="#000" stroke-miterlimit="10" stroke-width="2"/>
      <line id="Linha_67" data-name="Linha 67" x2="27.268" y2="27.268" fill="none" stroke="#000" stroke-miterlimit="10" stroke-width="2"/>
    </g>
    <g id="Grupo_578" data-name="Grupo 578" transform="translate(218.588 129.571)">
      <rect id="Retângulo_209" data-name="Retângulo 209" width="27.268" height="27.268" transform="translate(0)" fill="none" stroke="#000" stroke-miterlimit="10" stroke-width="2"/>
      <line id="Linha_68" data-name="Linha 68" x1="27.347" y2="27.268" transform="translate(0)" fill="none" stroke="#000" stroke-miterlimit="10" stroke-width="2"/>
      <line id="Linha_69" data-name="Linha 69" x2="27.347" y2="27.268" transform="translate(0)" fill="none" stroke="#000" stroke-miterlimit="10" stroke-width="2"/>
    </g>
    <g id="Grupo_581" data-name="Grupo 581" transform="translate(213.501 124.485)">
      <path id="Caminho_1093" data-name="Caminho 1093" d="M-71.815,1438.15a3.124,3.124,0,0,0-3.408-2.854l-27.426,2.536a3.124,3.124,0,0,0-2.854,3.409l2.537,27.426a3.124,3.124,0,0,0,3.408,2.854l27.426-2.536a3.124,3.124,0,0,0,2.854-3.409Z" transform="translate(106.864 -1434.094)" fill="#46668c" opacity="0.3"/>
      <g id="Grupo_580" data-name="Grupo 580" transform="translate(0)">
        <g id="Grupo_579" data-name="Grupo 579">
          <path id="Caminho_1094" data-name="Caminho 1094" d="M-73.832,1467.485l-27.426,2.536a3.124,3.124,0,0,1-3.408-2.854l-2.537-27.426a3.124,3.124,0,0,1,2.854-3.408l27.426-2.536a3.124,3.124,0,0,1,3.408,2.854l2.537,27.426A3.17,3.17,0,0,1-73.832,1467.485Z" transform="translate(107.217 -1433.783)" fill="#2979ff"/>
        </g>
        <path id="Caminho_1095" data-name="Caminho 1095" d="M-82.682,1441.193l-11.177,1.031a6.125,6.125,0,0,0-5.549,6.658l.713,7.927a6.125,6.125,0,0,0,6.658,5.549l7.451-.634,5.866,3.409-.159-4.28a6.234,6.234,0,0,0,3.646-6.183l-.713-7.927A6.154,6.154,0,0,0-82.682,1441.193Z" transform="translate(105.603 -1435.314)" fill="#fff"/>
      </g>
    </g>
    <g id="Grupo_585" data-name="Grupo 585" transform="translate(69.853 33.073)">
      <path id="Caminho_1096" data-name="Caminho 1096" d="M-252.768,1324.3l-27.268-3.8a3.143,3.143,0,0,0-3.567,2.7l-3.8,27.268a3.143,3.143,0,0,0,2.7,3.567l27.268,3.8a3.143,3.143,0,0,0,3.567-2.7l3.8-27.268A3.143,3.143,0,0,0-252.768,1324.3Z" transform="translate(288.231 -1318.877)" fill="#46668c" opacity="0.3"/>
      <g id="Grupo_584" data-name="Grupo 584">
        <g id="Grupo_582" data-name="Grupo 582">
          <path id="Caminho_1097" data-name="Caminho 1097" d="M-258.445,1355.827l-27.268-3.8a3.143,3.143,0,0,1-2.7-3.567l3.8-27.268a3.144,3.144,0,0,1,3.567-2.7l27.268,3.8a3.143,3.143,0,0,1,2.7,3.567l-3.8,27.268A3.143,3.143,0,0,1-258.445,1355.827Z" transform="translate(288.438 -1318.462)" fill="#e08b3e"/>
        </g>
        <g id="Grupo_583" data-name="Grupo 583" transform="translate(4.469 9.939)">
          <path id="Caminho_1098" data-name="Caminho 1098" d="M-282.8,1336.549l.476-3.646,9.116-1.9-.476,3.567-5.549.634,5.152,2.14-.476,3.567Z" transform="translate(282.8 -1331)" fill="#fff"/>
          <path id="Caminho_1099" data-name="Caminho 1099" d="M-263.229,1332.4l3.012.4-9.671,14.664-3.012-.4Z" transform="translate(280.747 -1331.29)" fill="#fff"/>
          <path id="Caminho_1100" data-name="Caminho 1100" d="M-258.424,1347.041l5.549-.634-5.152-2.14.476-3.567,8.244,4.36-.476,3.646-9.116,1.9Z" transform="translate(277.845 -1333.011)" fill="#fff"/>
        </g>
      </g>
    </g>
    <g id="Grupo_589" data-name="Grupo 589" transform="translate(118.312 78.995)">
      <path id="Caminho_1101" data-name="Caminho 1101" d="M-191.836,1380.93a3.07,3.07,0,0,0-3.329-2.933l-27.506,1.744a3.07,3.07,0,0,0-2.933,3.329l1.744,27.506a3.07,3.07,0,0,0,3.329,2.933l27.506-1.744a3.07,3.07,0,0,0,2.933-3.329Z" transform="translate(226.954 -1376.725)" fill="#46668c" opacity="0.3"/>
      <g id="Grupo_588" data-name="Grupo 588" transform="translate(0)">
        <g id="Grupo_586" data-name="Grupo 586">
          <path id="Caminho_1102" data-name="Caminho 1102" d="M-194.722,1410.167l-27.506,1.744a3.121,3.121,0,0,1-3.329-2.933l-1.744-27.506a3.121,3.121,0,0,1,2.933-3.329l27.506-1.744a3.121,3.121,0,0,1,3.329,2.933l1.744,27.506A3.121,3.121,0,0,1-194.722,1410.167Z" transform="translate(227.304 -1376.396)" fill="#f7d622"/>
        </g>
        <g id="Grupo_587" data-name="Grupo 587" transform="translate(6.579 6.413)">
          <path id="Caminho_1103" data-name="Caminho 1103" d="M-218.842,1397.735a11.253,11.253,0,0,1,9.591-13.079c6.341-1.031,11.573,2.774,12.445,7.927.793,4.915-1.823,7.689-4.6,8.165a3.976,3.976,0,0,1-4.36-1.665,4.465,4.465,0,0,1-3.329,2.774c-2.7.476-4.994-1.348-5.549-4.518-.634-3.725,1.348-7.213,4.439-7.689a3.787,3.787,0,0,1,3.646,1.506l.079-1.823,4.994-.079-.159,6.5a9.1,9.1,0,0,0,.079,1.427,1.36,1.36,0,0,0,1.665,1.189c1.585-.238,2.537-2.219,1.982-5.549-.793-4.677-5.311-8.085-11.177-7.134a10.1,10.1,0,0,0-8.64,11.89,9.924,9.924,0,0,0,11.89,8.4,11.444,11.444,0,0,0,5.945-2.7l.634.713a13.093,13.093,0,0,1-6.421,3.012A11.11,11.11,0,0,1-218.842,1397.735Zm12.207-2.774a1.353,1.353,0,0,0-1.585-1.268,2.035,2.035,0,0,0-1.506,2.536,1.353,1.353,0,0,0,1.585,1.268A2.133,2.133,0,0,0-206.635,1394.96Z" transform="translate(219.005 -1384.487)" fill="#fff"/>
        </g>
      </g>
    </g>
    <g id="Grupo_594" data-name="Grupo 594" transform="translate(211.82 31.646)">
      <g id="Grupo_592" data-name="Grupo 592" transform="translate(0)">
        <path id="Caminho_1104" data-name="Caminho 1104" d="M-72.878,1320.487a3.143,3.143,0,0,0-3.567-2.7l-27.268,3.646a3.143,3.143,0,0,0-2.7,3.567l3.646,27.268a3.143,3.143,0,0,0,3.567,2.7l27.268-3.646a3.143,3.143,0,0,0,2.7-3.567Z" transform="translate(108.737 -1316.89)" fill="#46668c" opacity="0.3"/>
        <g id="Grupo_591" data-name="Grupo 591">
          <g id="Grupo_590" data-name="Grupo 590">
            <path id="Caminho_1105" data-name="Caminho 1105" d="M-74.827,1350.222l-27.268,3.646a3.143,3.143,0,0,1-3.567-2.7l-3.646-27.268a3.143,3.143,0,0,1,2.7-3.567l27.268-3.646a3.143,3.143,0,0,1,3.567,2.7l3.646,27.268A3.143,3.143,0,0,1-74.827,1350.222Z" transform="translate(109.338 -1316.662)" fill="#508efb"/>
          </g>
        </g>
      </g>
      <g id="Grupo_593" data-name="Grupo 593" transform="translate(4.293 10.979)">
        <ellipse id="Elipse_41" data-name="Elipse 41" cx="4.835" cy="5.073" rx="4.835" ry="5.073" transform="translate(0 5.708) rotate(-7.296)" fill="#fff"/>
        <path id="Caminho_1106" data-name="Caminho 1106" d="M-75.518,1339.03a4.962,4.962,0,0,1-4.122,5.628,5.064,5.064,0,0,1-5.469-4.439,4.962,4.962,0,0,1,4.122-5.628A5.064,5.064,0,0,1-75.518,1339.03Z" transform="translate(100.03 -1331.352)" fill="#fff"/>
        <path id="Caminho_1107" data-name="Caminho 1107" d="M-68.932,1340.459a3.588,3.588,0,0,1-3.012,4.043,3.663,3.663,0,0,1-3.963-3.171,3.588,3.588,0,0,1,3.012-4.043A3.506,3.506,0,0,1-68.932,1340.459Z" transform="translate(98.12 -1331.909)" fill="#fff"/>
        <path id="Caminho_1108" data-name="Caminho 1108" d="M-83.881,1336.844a7.044,7.044,0,0,1-5.866,8.006,7.112,7.112,0,0,1-7.768-6.262,7.044,7.044,0,0,1,5.866-8.006A6.969,6.969,0,0,1-83.881,1336.844Z" transform="translate(102.606 -1330.513)" fill="#fff"/>
        <rect id="Retângulo_210" data-name="Retângulo 210" width="21.085" height="4.518" transform="translate(5.087 10.702) rotate(-7.296)" fill="#fff"/>
      </g>
    </g>
    <g id="Grupo_596" data-name="Grupo 596" transform="translate(70.028 123.93)">
      <path id="Caminho_1109" data-name="Caminho 1109" d="M-253.849,1437.116l-27.426-2.219a3.18,3.18,0,0,0-3.408,2.854l-2.219,27.426a3.18,3.18,0,0,0,2.854,3.409l27.426,2.219a3.18,3.18,0,0,0,3.408-2.854l2.219-27.426A3.124,3.124,0,0,0-253.849,1437.116Z" transform="translate(287.947 -1433.457)" fill="#46668c" opacity="0.3"/>
      <g id="Grupo_595" data-name="Grupo 595" transform="translate(0)">
        <path id="Caminho_1110" data-name="Caminho 1110" d="M-257.923,1469l-27.426-2.219a3.124,3.124,0,0,1-2.854-3.409l2.219-27.426a3.124,3.124,0,0,1,3.408-2.854l27.426,2.219a3.124,3.124,0,0,1,2.854,3.409l-2.219,27.426A3.18,3.18,0,0,1-257.923,1469Z" transform="translate(288.217 -1433.083)" fill="#6d4c41"/>
        <path id="Caminho_1111" data-name="Caminho 1111" d="M-257.87,1466.751l.408-5.048-2.853-.768a5.745,5.745,0,0,0-.408-1.427l1.936-2.414-3.057-3.951-2.547,1.536a6.672,6.672,0,0,0-1.223-.658l-.2-3.182-2.344-.219-2.344-.219-.713,3.073a4.781,4.781,0,0,0-1.325.439l-2.242-2.085-3.668,3.292,1.426,2.744a7.624,7.624,0,0,0-.611,1.317l-2.955.22-.408,5.048,2.853.768a5.744,5.744,0,0,0,.408,1.427l-1.936,2.414,3.057,3.95,2.547-1.536a6.665,6.665,0,0,0,1.223.658l.2,3.183,2.344.219,2.344.219.713-3.073a4.79,4.79,0,0,0,1.325-.439l2.242,2.085,3.668-3.292-1.427-2.744a7.617,7.617,0,0,0,.611-1.317Zm-12.023,3.841a7.285,7.285,0,0,1-6.317-8.121c.408-4.061,3.77-7.243,7.54-6.8a7.285,7.285,0,0,1,6.317,8.121A7.144,7.144,0,0,1-269.894,1470.592Z" transform="translate(286.127 -1445.079)" fill="#fff"/>
      </g>
    </g>
  </g>
</svg>
