<svg xmlns="http://www.w3.org/2000/svg" xmlns:xlink="http://www.w3.org/1999/xlink" width="282" height="252.605" viewBox="0 0 282 252.605">
  <defs>
    <clipPath id="clip-path">
      <rect width="282" height="252.605" fill="none"/>
    </clipPath>
  </defs>
  <g id="site" clip-path="url(#clip-path)">
    <g id="Grupo_535" data-name="Grupo 535" transform="translate(1 1)">
      <g id="Grupo_534" data-name="Grupo 534">
        <path id="Caminho_1052" data-name="Caminho 1052" d="M263.82,213.542H18.1A17.136,17.136,0,0,1,1,196.44V18.1A17.086,17.086,0,0,1,18.1,1H263.9A17.136,17.136,0,0,1,281,18.1V196.44A17.307,17.307,0,0,1,263.82,213.542Z" transform="translate(-1 -1)" fill="none" stroke="#000" stroke-miterlimit="10" stroke-width="2"/>
      </g>
    </g>
    <path id="Caminho_1053" data-name="Caminho 1053" d="M356.2,233" transform="translate(-75.279 -49.169)" fill="none" stroke="#bed5f6" stroke-miterlimit="10" stroke-width="2"/>
    <path id="Caminho_1054" data-name="Caminho 1054" d="M1,220.5" transform="translate(0 -46.52)" fill="none" stroke="#bed5f6" stroke-miterlimit="10" stroke-width="2"/>
    <line id="Linha_26" data-name="Linha 26" y1="0.158" x2="29.71" transform="translate(125.909 200.696)" fill="none" stroke="#000" stroke-miterlimit="10" stroke-width="2"/>
    <g id="Grupo_536" data-name="Grupo 536" transform="translate(20.308 19.441)">
      <path id="Caminho_1055" data-name="Caminho 1055" d="M250.966,178.782H43.31a17.136,17.136,0,0,1-17.1-17.1L25.5,41.5A17.136,17.136,0,0,1,42.6,24.4H250.257a17.136,17.136,0,0,1,17.1,17.1V162.39C267.279,171.847,260.344,178.782,250.966,178.782Z" transform="translate(-25.5 -24.4)" fill="none" stroke="#000" stroke-miterlimit="10" stroke-width="2"/>
    </g>
    <line id="Linha_27" data-name="Linha 27" y1="0.158" x2="279.921" transform="translate(1 188.796)" fill="none" stroke="#000" stroke-miterlimit="10" stroke-width="2"/>
    <rect id="Retângulo_192" data-name="Retângulo 192" width="206.079" height="44.368" transform="translate(40.246 38.748)" fill="none" stroke="#000" stroke-miterlimit="10" stroke-width="2"/>
    <path id="Caminho_1056" data-name="Caminho 1056" d="M50.8,105.3" transform="translate(-10.554 -22.105)" fill="none" stroke="#bed5f6" stroke-miterlimit="10" stroke-width="2"/>
    <path id="Caminho_1057" data-name="Caminho 1057" d="M85.2,70.8" transform="translate(-17.845 -14.793)" fill="none" stroke="#bed5f6" stroke-miterlimit="10" stroke-width="2"/>
    <path id="Caminho_1058" data-name="Caminho 1058" d="M221.734,312.939H89.969A11.267,11.267,0,0,1,78.7,301.669h0A11.267,11.267,0,0,1,89.969,290.4H221.734A11.267,11.267,0,0,1,233,301.669h0A11.267,11.267,0,0,1,221.734,312.939Z" transform="translate(-16.467 -61.333)" fill="none" stroke="#000" stroke-miterlimit="10" stroke-width="2"/>
    <g id="Grupo_537" data-name="Grupo 537" transform="translate(40.246 100.848)">
      <rect id="Retângulo_193" data-name="Retângulo 193" width="27.109" height="27.109" fill="none" stroke="#000" stroke-miterlimit="10" stroke-width="2"/>
      <line id="Linha_28" data-name="Linha 28" x1="27.109" y2="27.109" fill="none" stroke="#000" stroke-miterlimit="10" stroke-width="2"/>
      <line id="Linha_29" data-name="Linha 29" x2="27.109" y2="27.109" fill="none" stroke="#000" stroke-miterlimit="10" stroke-width="2"/>
    </g>
    <g id="Grupo_538" data-name="Grupo 538" transform="translate(84.929 100.848)">
      <rect id="Retângulo_194" data-name="Retângulo 194" width="27.109" height="27.109" fill="none" stroke="#000" stroke-miterlimit="10" stroke-width="2"/>
      <line id="Linha_30" data-name="Linha 30" x1="27.188" y2="27.109" fill="none" stroke="#000" stroke-miterlimit="10" stroke-width="2"/>
      <line id="Linha_31" data-name="Linha 31" x2="27.188" y2="27.109" fill="none" stroke="#000" stroke-miterlimit="10" stroke-width="2"/>
    </g>
    <g id="Grupo_539" data-name="Grupo 539" transform="translate(129.691 100.848)">
      <rect id="Retângulo_195" data-name="Retângulo 195" width="27.109" height="27.109" fill="none" stroke="#000" stroke-miterlimit="10" stroke-width="2"/>
      <line id="Linha_32" data-name="Linha 32" x1="27.109" y2="27.109" fill="none" stroke="#000" stroke-miterlimit="10" stroke-width="2"/>
      <line id="Linha_33" data-name="Linha 33" x2="27.109" y2="27.109" fill="none" stroke="#000" stroke-miterlimit="10" stroke-width="2"/>
    </g>
    <g id="Grupo_540" data-name="Grupo 540" transform="translate(174.453 100.848)">
      <rect id="Retângulo_196" data-name="Retângulo 196" width="27.109" height="27.109" fill="none" stroke="#000" stroke-miterlimit="10" stroke-width="2"/>
      <line id="Linha_34" data-name="Linha 34" x1="27.109" y2="27.109" fill="none" stroke="#000" stroke-miterlimit="10" stroke-width="2"/>
      <line id="Linha_35" data-name="Linha 35" x2="27.109" y2="27.109" fill="none" stroke="#000" stroke-miterlimit="10" stroke-width="2"/>
    </g>
    <g id="Grupo_541" data-name="Grupo 541" transform="translate(219.137 100.848)">
      <rect id="Retângulo_197" data-name="Retângulo 197" width="27.109" height="27.109" fill="none" stroke="#000" stroke-miterlimit="10" stroke-width="2"/>
      <line id="Linha_36" data-name="Linha 36" x1="27.188" y2="27.109" fill="none" stroke="#000" stroke-miterlimit="10" stroke-width="2"/>
      <line id="Linha_37" data-name="Linha 37" x2="27.188" y2="27.109" fill="none" stroke="#000" stroke-miterlimit="10" stroke-width="2"/>
    </g>
    <g id="Grupo_545" data-name="Grupo 545" transform="translate(168.513 90.021)">
      <path id="Caminho_1059" data-name="Caminho 1059" d="M248.93,119.675l-27.109-3.783a3.125,3.125,0,0,0-3.546,2.679l-3.783,27.109a3.125,3.125,0,0,0,2.679,3.546l27.109,3.783a3.125,3.125,0,0,0,3.546-2.679l3.783-27.109A3.125,3.125,0,0,0,248.93,119.675Z" transform="translate(-213.753 -114.365)" fill="#46668c" opacity="0.3"/>
      <g id="Grupo_544" data-name="Grupo 544">
        <g id="Grupo_542" data-name="Grupo 542">
          <path id="Caminho_1060" data-name="Caminho 1060" d="M243.381,151.11l-27.109-3.783a3.125,3.125,0,0,1-2.679-3.546l3.783-27.109a3.125,3.125,0,0,1,3.546-2.679l27.109,3.783a3.125,3.125,0,0,1,2.679,3.546l-3.783,27.109A3.168,3.168,0,0,1,243.381,151.11Z" transform="translate(-213.562 -113.962)" fill="#e08b3e"/>
        </g>
        <g id="Grupo_543" data-name="Grupo 543" transform="translate(4.364 9.881)">
          <path id="Caminho_1061" data-name="Caminho 1061" d="M219.1,132.016l.473-3.625,9.063-1.891-.473,3.546-5.516.63,5.122,2.128-.473,3.546Z" transform="translate(-219.1 -126.5)" fill="#fff"/>
          <path id="Caminho_1062" data-name="Caminho 1062" d="M238.614,127.9l2.995.394-9.614,14.579L229,142.479Z" transform="translate(-221.198 -126.797)" fill="#fff"/>
          <path id="Caminho_1063" data-name="Caminho 1063" d="M243.573,142.4l5.516-.63-5.122-2.128.473-3.546,8.2,4.334-.473,3.625-9.063,1.891Z" transform="translate(-224.186 -128.535)" fill="#fff"/>
        </g>
      </g>
    </g>
    <line id="Linha_38" data-name="Linha 38" y1="0.158" x2="206.079" transform="translate(40.246 151.915)" fill="none" stroke="#000" stroke-miterlimit="10" stroke-width="2"/>
    <path id="Caminho_1070" data-name="Caminho 1070" d="M261.317,91.717l-199.3-4.65A2.946,2.946,0,0,1,59.1,83.994l.867-38.379A2.946,2.946,0,0,1,63.039,42.7l199.3,4.65a2.946,2.946,0,0,1,2.916,3.073L264.39,88.8A3,3,0,0,1,261.317,91.717Z" transform="translate(-12.312 -8.837)" fill="#46668c" opacity="0.3"/>
    <path id="Caminho_1071" data-name="Caminho 1071" d="M259.417,89.8l-199.3-4.728A2.946,2.946,0,0,1,57.2,81.994l.867-38.379A2.946,2.946,0,0,1,61.139,40.7l199.3,4.65a2.946,2.946,0,0,1,2.916,3.073L262.49,86.8A3.06,3.06,0,0,1,259.417,89.8Z" transform="translate(-11.91 -8.413)" fill="#de5e5b"/>
    <path id="Caminho_1072" data-name="Caminho 1072" d="M200.334,69.637,185.6,58.92a1.541,1.541,0,0,0-2.443,1.1L181.5,77.755a1.549,1.549,0,0,0,2.128,1.576l16.392-7.014A1.509,1.509,0,0,0,200.334,69.637Z" transform="translate(-38.253 -12.212)" fill="#fff"/>
    <g id="Grupo_558" data-name="Grupo 558" transform="translate(44.684 107.729)">
      <path id="Caminho_1079" data-name="Caminho 1079" d="M97.473,148.035a3.082,3.082,0,0,0-2.443-3.7l-26.794-5.753a3.082,3.082,0,0,0-3.7,2.443l-5.753,26.794a3.082,3.082,0,0,0,2.443,3.7l26.794,5.753a3.082,3.082,0,0,0,3.7-2.443Z" transform="translate(-56.912 -136.87)" fill="#46668c" opacity="0.3"/>
      <g id="Grupo_557" data-name="Grupo 557">
        <g id="Grupo_556" data-name="Grupo 556">
          <path id="Caminho_1080" data-name="Caminho 1080" d="M85.723,175.18l-26.794-5.753a3.244,3.244,0,0,1-2.443-3.7l5.753-26.794a3.244,3.244,0,0,1,3.7-2.443l26.794,5.753a3.244,3.244,0,0,1,2.443,3.7l-5.753,26.794A3.119,3.119,0,0,1,85.723,175.18Z" transform="translate(-56.432 -136.432)" fill="#f7d622"/>
        </g>
      </g>
      <path id="Caminho_1081" data-name="Caminho 1081" d="M73.8,149.233a7.958,7.958,0,0,0-3.152,10.718A7.836,7.836,0,0,0,80.42,163.5l5.438,9.851,1.813-1.024-5.438-9.851a7.862,7.862,0,0,0-8.432-13.24Zm6.541,12.057a5.8,5.8,0,1,1,2.285-7.881A5.8,5.8,0,0,1,80.341,161.291Z" transform="translate(-59.246 -138.935)" fill="#fff"/>
    </g>
    <line id="Linha_39" data-name="Linha 39" x2="0.079" y2="14.894" transform="translate(125.987 214.251)" fill="none" stroke="#000" stroke-miterlimit="10" stroke-width="2"/>
    <line id="Linha_40" data-name="Linha 40" y2="14.894" transform="translate(151.048 214.172)" fill="none" stroke="#000" stroke-miterlimit="10" stroke-width="2"/>
  </g>
</svg>
